# xmcd
# 
# Track frame offsets:
#     150
#     23920
#     57690
#     118623
#     145039
#     194699
# 
# Disc length: 2883
# 
# Revision: 4
# Processed by: cddbd v1.5.2PL0 Copyright (c) Steve Scherf et al.
# Submitted via: fre:ac v1.0.31
# 
DISCID=580b4106
DTITLE=Miroslav Vitous - Remembering Weather Report
DYEAR=2009
DGENRE=Jazz
TTITLE0=Variations On W. Shorter
TTITLE1=Variations On Lonely Woman
TTITLE2=Semina
TTITLE3=Surfing With Michel
TTITLE4=When Dvořák Meets Miles
TTITLE5=Blues Report
EXTD=YEAR: 2009
EXTT0=
EXTT1=
EXTT2=
EXTT3=
EXTT4=
EXTT5=
PLAYORDER=
